<svg width="320" height="155" viewBox="0 2 320 135" fill="none" preserveAspectRatio="none" xmlns="http://www.w3.org/2000/svg">
<path d="M0 140.732L15.7776 1.26786H71.1849L86.6841 140.732H55.7786L53.4583 118.228H33.7827L31.7409 140.732H0ZM36.1029 95.9609H50.9525L43.8061 25.0402H42.3212L36.1029 95.9609Z" fill="black"/>
<path d="M83.4024 140.732V1.26786H133.52C141.872 1.26786 148.183 2.90551 152.453 6.1808C156.722 9.40327 159.568 13.9464 160.991 19.8103C162.476 25.6213 163.219 32.4624 163.219 40.3337C163.219 47.9408 162.074 54.016 159.785 58.5592C157.557 63.1023 153.319 66.2455 147.07 67.9888C152.205 68.8869 155.794 71.0792 157.836 74.5658C159.939 77.9996 160.991 82.4635 160.991 87.9576V140.732H128.786V86.135C128.786 82.0673 127.796 79.558 125.816 78.6071C123.898 77.6034 120.774 77.1016 116.443 77.1016V140.732H83.4024ZM116.628 52.933H124.517C129.034 52.933 131.292 48.7333 131.292 40.3337C131.292 34.8925 130.797 31.3266 129.807 29.6362C128.817 27.9457 126.961 27.1004 124.239 27.1004H116.628V52.933Z" fill="black"/>
<path d="M199.659 142C186.604 142 176.612 138.645 169.682 131.936C162.814 125.174 159.38 115.428 159.38 102.696V36.4509C159.38 24.5119 162.783 15.452 169.589 9.27121C176.457 3.0904 186.48 0 199.659 0C212.838 0 222.831 3.0904 229.637 9.27121C236.505 15.452 239.939 24.5119 239.939 36.4509V102.696C239.939 115.428 236.474 125.174 229.544 131.936C222.676 138.645 212.715 142 199.659 142ZM199.938 116.326C204.888 116.326 207.363 112.232 207.363 104.044V35.9754C207.363 29.1079 204.95 25.6741 200.123 25.6741C194.679 25.6741 191.956 29.1871 191.956 36.2132V104.202C191.956 108.534 192.575 111.651 193.812 113.552C195.05 115.401 197.092 116.326 199.938 116.326Z" fill="black"/>
<path d="M239.813 140.732V1.26786H273.41L288.445 68.0681V1.26786H320V140.732H288.073L271.739 71V140.732H239.813Z" fill="black"/>
</svg>
