<svg width="1200" height="120" viewBox="0 0 1200 120" fill="none" xmlns="http://www.w3.org/2000/svg">
<path d="M44.1301 88.012L52.5183 36.5792H81.9755L90.2157 88.012H73.7847L72.5512 79.7126H62.0907L61.0051 88.012H44.1301ZM63.3242 71.5009H71.2189L67.4196 45.3462H66.6301L63.3242 71.5009Z" fill="black"/>
<path d="M95.2485 88.012V44.1772H113.209V49.0575C114.064 47.3626 115.577 46.0378 117.749 45.0831C119.92 44.1285 122.65 43.6512 125.939 43.6512V52.3889C124.492 52.3889 122.765 52.4864 120.758 52.6812C118.752 52.8565 116.992 53.1098 115.479 53.441C113.966 53.7527 113.209 54.1034 113.209 54.493V88.012H95.2485Z" fill="black"/>
<path d="M151.795 88.4796C137.058 88.4796 129.689 83.95 129.689 74.8908V57.2984C129.689 53.1682 131.647 49.8757 135.561 47.421C139.476 44.9468 144.887 43.7097 151.795 43.7097C158.735 43.7097 164.163 44.9468 168.077 47.421C171.992 49.8757 173.949 53.1682 173.949 57.2984V74.8908C173.949 83.95 166.564 88.4796 151.795 88.4796ZM151.795 80.414C153.275 80.414 154.327 80.1022 154.952 79.4788C155.61 78.8359 155.939 78.0274 155.939 77.0533V55.6327C155.939 53.0806 154.558 51.8045 151.795 51.8045C149.031 51.8045 147.65 53.0806 147.65 55.6327V77.0533C147.65 78.0274 147.962 78.8359 148.587 79.4788C149.245 80.1022 150.314 80.414 151.795 80.414Z" fill="black"/>
<path d="M180.512 88.012V44.1772H198.176V49.7589C198.834 48.0834 200.051 46.6612 201.827 45.4923C203.637 44.3039 206.137 43.7097 209.327 43.7097C214.459 43.7097 218.176 44.6448 220.479 46.5151C222.814 48.3854 223.982 50.9473 223.982 54.2008V88.012H206.564V55.282C206.564 54.4248 206.268 53.6358 205.676 52.915C205.084 52.1746 204.064 51.8045 202.617 51.8045C201.268 51.8045 200.265 52.087 199.607 52.652C198.982 53.1974 198.587 53.8891 198.423 54.7268C198.258 55.545 198.176 56.3633 198.176 57.1815V88.012H180.512Z" fill="black"/>
<path d="M262.913 88.012L252.206 36.55H268.735L275.101 71.5593L280.775 36.55H297.304L286.597 88.012H262.913Z" fill="black"/>
<path d="M315.561 88.4796C311.449 88.4796 308.308 87.9146 306.137 86.7846C303.999 85.6547 302.535 84.1058 301.745 82.1381C300.956 80.1704 300.561 77.9397 300.561 75.446C300.561 72.777 301.005 70.595 301.893 68.9C302.781 67.1856 304.295 65.7829 306.433 64.6919C308.604 63.6009 311.581 62.6755 315.364 61.9157L326.318 59.6947V55.1944C326.318 52.837 325.018 51.6584 322.42 51.6584C320.051 51.6584 318.867 52.613 318.867 54.5222V57.1523H301.696C301.663 56.9965 301.647 56.8016 301.647 56.5679C301.647 56.3146 301.647 56.0321 301.647 55.7204C301.647 51.3564 303.374 48.2685 306.827 46.4566C310.314 44.6253 315.824 43.7097 323.357 43.7097C327.304 43.7097 330.841 44.1285 333.966 44.9663C337.091 45.7845 339.558 47.0021 341.367 48.6192C343.209 50.2362 344.13 52.2331 344.13 54.6099V88.012H326.564V82.8103C325.709 84.6416 324.295 86.0443 322.321 87.0184C320.347 87.9925 318.094 88.4796 315.561 88.4796ZM322.518 80.3555C323.966 80.3555 324.952 79.9951 325.479 79.2743C326.005 78.5534 326.268 77.7741 326.268 76.9364V64.7211C323.834 65.3056 321.943 66.0459 320.594 66.9421C319.245 67.8188 318.571 69.1143 318.571 70.8288V76.4688C318.571 79.06 319.887 80.3555 322.518 80.3555Z" fill="black"/>
<path d="M365.199 88.4796C361.252 88.4796 358.226 87.9925 356.12 87.0184C354.048 86.0443 352.633 84.6903 351.877 82.9564C351.12 81.203 350.742 79.1574 350.742 76.8195V44.1772H368.505V75.5921C368.505 77.3455 368.735 78.5729 369.196 79.2743C369.656 79.9561 370.742 80.2971 372.452 80.2971C374.295 80.2971 375.446 79.81 375.906 78.8359C376.4 77.8618 376.647 76.6052 376.647 75.0661V44.1772H394.262V88.012H376.597V83.3363C375.479 85.0117 374.13 86.2878 372.551 87.1645C371.005 88.0412 368.554 88.4796 365.199 88.4796Z" fill="black"/>
<path d="M401.367 95.3178V44.1772H419.327V48.8529C420.413 47.2359 421.91 45.9793 423.818 45.0831C425.758 44.1675 428.522 43.7097 432.107 43.7097C436.943 43.7097 440.347 44.752 442.321 46.8365C444.327 48.9211 445.331 51.6486 445.331 55.019V76.5857C445.331 78.8262 444.788 80.8523 443.702 82.6641C442.65 84.4565 440.972 85.8787 438.67 86.9307C436.4 87.9633 433.423 88.4796 429.739 88.4796C424.936 88.4796 421.466 86.7651 419.327 83.3363V95.3178H401.367ZM423.522 80.3263C425.364 80.3263 426.466 79.7808 426.827 78.6898C427.222 77.5988 427.42 76.2545 427.42 74.657V57.5322C427.42 55.9152 427.222 54.5709 426.827 53.4994C426.466 52.4084 425.364 51.8629 423.522 51.8629C421.614 51.8629 420.429 52.4182 419.969 53.5286C419.541 54.6196 419.327 55.9542 419.327 57.5322V74.657C419.327 76.235 419.541 77.5793 419.969 78.6898C420.429 79.7808 421.614 80.3263 423.522 80.3263Z" fill="black"/>
<path d="M472.814 88.4796C467.551 88.4796 463.357 87.8951 460.232 86.7262C457.107 85.5572 454.87 83.872 453.522 81.6706C452.173 79.4691 451.499 76.8195 451.499 73.7219V56.1003C451.499 52.0285 453.472 48.9503 457.42 46.8658C461.367 44.7617 466.795 43.7097 473.702 43.7097C487.913 43.7097 495.018 47.8399 495.018 56.1003V59.2856C495.018 63.1431 494.952 65.7342 494.821 67.059H469.163V75.5337C469.163 76.313 469.245 77.0825 469.41 77.8423C469.574 78.5826 469.936 79.1963 470.495 79.6834C471.087 80.1704 472.025 80.414 473.308 80.414C475.15 80.414 476.301 79.9464 476.762 79.0113C477.222 78.0566 477.452 76.8195 477.452 75.2999V71.0918H495.018V73.5757C495.018 76.8487 494.327 79.5957 492.946 81.8167C491.597 84.0182 489.295 85.6839 486.038 86.8138C482.814 87.9243 478.406 88.4796 472.814 88.4796ZM469.064 61.8572H477.452V55.9542C477.452 54.3761 477.124 53.2462 476.466 52.5643C475.808 51.8629 474.821 51.5122 473.505 51.5122C472.091 51.5122 470.989 51.8434 470.199 52.5058C469.443 53.1682 469.064 54.3177 469.064 55.9542V61.8572Z" fill="black"/>
<path d="M501.433 88.012V36.5792H519.393V88.012H501.433Z" fill="black"/>
<path fill-rule="evenodd" clip-rule="evenodd" d="M1187.86 12.7152H527.864V106.229H1187.86V12.7152ZM568.796 34.2235L578.122 85.6563H599.29L603.435 60.9042L607.777 85.6563H628.599L638.073 34.2235H620.902L616.264 66.6904L611.625 34.2235H595.441L590.556 66.6904L585.77 34.2235H568.796ZM651.099 84.3704C654.224 85.5394 658.418 86.1238 663.681 86.1238C669.273 86.1238 673.681 85.5686 676.905 84.4581C680.162 83.3281 682.464 81.6624 683.813 79.4609C685.194 77.24 685.885 74.493 685.885 71.22V68.736H668.319V72.9442C668.319 74.4638 668.089 75.7009 667.629 76.6555C667.168 77.5907 666.017 78.0582 664.175 78.0582C662.892 78.0582 661.954 77.8147 661.362 77.3277C660.803 76.8406 660.441 76.2269 660.277 75.4866C660.112 74.7268 660.03 73.9572 660.03 73.178V64.7032H685.688C685.819 63.3785 685.885 60.7873 685.885 56.9299V53.7446C685.885 45.4841 678.78 41.3539 664.569 41.3539C657.662 41.3539 652.234 42.406 648.287 44.51C644.339 46.5946 642.366 49.6728 642.366 53.7446V71.3661C642.366 74.4638 643.04 77.1134 644.389 79.3148C645.737 81.5163 647.974 83.2015 651.099 84.3704ZM668.319 59.5015H659.931V53.5984C659.931 51.9619 660.31 50.8125 661.066 50.1501C661.856 49.4877 662.958 49.1565 664.372 49.1565C665.688 49.1565 666.675 49.5072 667.333 50.2086C667.991 50.8904 668.319 52.0204 668.319 53.5984V59.5015ZM714.8 84.8672C716.609 85.705 718.961 86.1238 721.856 86.1238C725.211 86.1238 727.958 85.6075 730.096 84.575C732.267 83.523 733.862 82.1008 734.882 80.3084C735.935 78.4966 736.461 76.4704 736.461 74.23V52.6633C736.461 49.2929 735.458 46.5654 733.451 44.4808C731.477 42.3962 728.073 41.3539 723.237 41.3539C719.652 41.3539 716.889 41.8118 714.948 42.7274C713.04 43.6236 711.543 44.8802 710.458 46.4972V34.2235H692.497V85.6563H710.458V80.9805C711.543 82.7145 712.991 84.01 714.8 84.8672ZM717.958 76.3341C717.563 77.4251 716.428 77.9706 714.553 77.9706C712.678 77.9706 711.527 77.4251 711.099 76.3341C710.671 75.2236 710.458 73.8793 710.458 72.3013V55.1765C710.458 53.5984 710.671 52.2639 711.099 51.1729C711.527 50.0624 712.694 49.5072 714.602 49.5072C716.444 49.5072 717.563 50.0527 717.958 51.1437C718.352 52.2152 718.55 53.5595 718.55 55.1765V72.3013C718.55 73.8988 718.352 75.2431 717.958 76.3341ZM743.319 34.2235V85.6563H766.609C773.813 85.6563 778.846 84.3315 781.708 81.6819C784.602 79.0323 786.05 75.2723 786.05 70.4018V46.3219C786.05 42.367 784.471 39.3668 781.313 37.3211C778.155 35.256 773.451 34.2235 767.201 34.2235H743.319ZM763.796 76.5679H760.787V43.2242H762.711C765.079 43.2242 766.642 43.4775 767.398 43.984C768.188 44.4711 768.583 45.5718 768.583 47.2862V73.8209C768.583 75.6522 766.987 76.5679 763.796 76.5679ZM801 84.3704C804.125 85.5394 808.319 86.1238 813.583 86.1238C819.175 86.1238 823.583 85.5686 826.806 84.4581C830.063 83.3281 832.366 81.6624 833.714 79.4609C835.096 77.24 835.787 74.493 835.787 71.22V68.736H818.221V72.9442C818.221 74.4638 817.991 75.7009 817.53 76.6555C817.069 77.5907 815.918 78.0582 814.076 78.0582C812.793 78.0582 811.856 77.8147 811.264 77.3277C810.704 76.8406 810.343 76.2269 810.178 75.4866C810.014 74.7268 809.931 73.9572 809.931 73.178V64.7032H835.589C835.721 63.3785 835.787 60.7873 835.787 56.9299V53.7446C835.787 45.4841 828.681 41.3539 814.471 41.3539C807.563 41.3539 802.135 42.406 798.188 44.51C794.241 46.5946 792.267 49.6728 792.267 53.7446V71.3661C792.267 74.4638 792.941 77.1134 794.29 79.3148C795.639 81.5163 797.875 83.2015 801 84.3704ZM818.221 59.5015H809.833V53.5984C809.833 51.9619 810.211 50.8125 810.967 50.1501C811.757 49.4877 812.859 49.1565 814.273 49.1565C815.589 49.1565 816.576 49.5072 817.234 50.2086C817.892 50.8904 818.221 52.0204 818.221 53.5984V59.5015ZM839.734 41.8215L851.625 85.6563H872.053L884.142 41.8215H866.477L861.691 71.1031L857.448 41.8215H839.734ZM896.921 84.3704C900.046 85.5394 904.241 86.1238 909.504 86.1238C915.096 86.1238 919.504 85.5686 922.727 84.4581C925.984 83.3281 928.287 81.6624 929.635 79.4609C931.017 77.24 931.708 74.493 931.708 71.22V68.736H914.142V72.9442C914.142 74.4638 913.912 75.7009 913.451 76.6555C912.991 77.5907 911.839 78.0582 909.997 78.0582C908.714 78.0582 907.777 77.8147 907.185 77.3277C906.625 76.8406 906.264 76.2269 906.099 75.4866C905.935 74.7268 905.852 73.9572 905.852 73.178V64.7032H931.51C931.642 63.3785 931.708 60.7873 931.708 56.9299V53.7446C931.708 45.4841 924.602 41.3539 910.392 41.3539C903.484 41.3539 898.056 42.406 894.109 44.51C890.162 46.5946 888.188 49.6728 888.188 53.7446V71.3661C888.188 74.4638 888.862 77.1134 890.211 79.3148C891.56 81.5163 893.796 83.2015 896.921 84.3704ZM914.142 59.5015H905.754V53.5984C905.754 51.9619 906.132 50.8125 906.889 50.1501C907.678 49.4877 908.78 49.1565 910.194 49.1565C911.51 49.1565 912.497 49.5072 913.155 50.2086C913.813 50.8904 914.142 52.0204 914.142 53.5984V59.5015ZM938.122 34.2235V85.6563H956.083V34.2235H938.122ZM962.596 72.5351C962.596 81.5942 969.964 86.1238 984.701 86.1238C999.471 86.1238 1006.86 81.5942 1006.86 72.5351V54.9427C1006.86 50.8125 1004.9 47.52 1000.98 45.0653C997.069 42.591 991.642 41.3539 984.701 41.3539C977.793 41.3539 972.382 42.591 968.467 45.0653C964.553 47.52 962.596 50.8125 962.596 54.9427V72.5351ZM987.859 77.1231C987.234 77.7465 986.181 78.0582 984.701 78.0582C983.221 78.0582 982.152 77.7465 981.494 77.1231C980.869 76.4802 980.556 75.6717 980.556 74.6976V53.277C980.556 50.7248 981.938 49.4488 984.701 49.4488C987.464 49.4488 988.846 50.7248 988.846 53.277V74.6976C988.846 75.6717 988.517 76.4802 987.859 77.1231ZM1013.42 41.8215V92.962H1031.38V80.9805C1033.52 84.4094 1036.99 86.1238 1041.79 86.1238C1045.47 86.1238 1048.45 85.6075 1050.72 84.575C1053.02 83.523 1054.7 82.1008 1055.75 80.3084C1056.84 78.4966 1057.38 76.4704 1057.38 74.23V52.6633C1057.38 49.2929 1056.38 46.5654 1054.37 44.4808C1052.4 42.3962 1048.99 41.3539 1044.16 41.3539C1040.57 41.3539 1037.81 41.8118 1035.87 42.7274C1033.96 43.6236 1032.46 44.8802 1031.38 46.4972V41.8215H1013.42ZM1038.88 76.3341C1038.52 77.4251 1037.41 77.9706 1035.57 77.9706C1033.66 77.9706 1032.48 77.4251 1032.02 76.3341C1031.59 75.2236 1031.38 73.8793 1031.38 72.3013V55.1765C1031.38 53.5984 1031.59 52.2639 1032.02 51.1729C1032.48 50.0624 1033.66 49.5072 1035.57 49.5072C1037.41 49.5072 1038.52 50.0527 1038.88 51.1437C1039.27 52.2152 1039.47 53.5595 1039.47 55.1765V72.3013C1039.47 73.8988 1039.27 75.2431 1038.88 76.3341ZM1072.28 84.3704C1075.41 85.5394 1079.6 86.1238 1084.87 86.1238C1090.46 86.1238 1094.87 85.5686 1098.09 84.4581C1101.35 83.3281 1103.65 81.6624 1105 79.4609C1106.38 77.24 1107.07 74.493 1107.07 71.22V68.736H1089.5V72.9442C1089.5 74.4638 1089.27 75.7009 1088.81 76.6555C1088.35 77.5907 1087.2 78.0582 1085.36 78.0582C1084.08 78.0582 1083.14 77.8147 1082.55 77.3277C1081.99 76.8406 1081.63 76.2269 1081.46 75.4866C1081.3 74.7268 1081.21 73.9572 1081.21 73.178V64.7032H1106.87C1107 63.3785 1107.07 60.7873 1107.07 56.9299V53.7446C1107.07 45.4841 1099.96 41.3539 1085.75 41.3539C1078.85 41.3539 1073.42 42.406 1069.47 44.51C1065.52 46.5946 1063.55 49.6728 1063.55 53.7446V71.3661C1063.55 74.4638 1064.22 77.1134 1065.57 79.3148C1066.92 81.5163 1069.16 83.2015 1072.28 84.3704ZM1089.5 59.5015H1081.12V53.5984C1081.12 51.9619 1081.49 50.8125 1082.25 50.1501C1083.04 49.4877 1084.14 49.1565 1085.56 49.1565C1086.87 49.1565 1087.86 49.5072 1088.52 50.2086C1089.17 50.8904 1089.5 52.0204 1089.5 53.5984V59.5015ZM1113.48 41.8215V85.6563H1131.44V52.1373C1131.44 51.7476 1132.2 51.397 1133.71 51.0852C1135.23 50.7541 1136.99 50.5008 1138.99 50.3254C1141 50.1306 1142.73 50.0332 1144.17 50.0332V41.2955C1140.89 41.2955 1138.15 41.7728 1135.98 42.7274C1133.81 43.682 1132.3 45.0068 1131.44 46.7018V41.8215H1113.48Z" fill="black"/>
<path fill-rule="evenodd" clip-rule="evenodd" d="M1184.06 10H15.9363V110H1184.06V10ZM0 0V120H1200V0H0Z" fill="black"/>
<rect x="527.864" y="8.74172" width="672.136" height="3.97351" fill="black"/>
<rect x="527.864" y="102.517" width="672.136" height="7.94702" fill="black"/>
</svg>
