<svg width="320" height="145" viewBox="0 3 320 135" fill="none" preserveAspectRatio="none" xmlns="http://www.w3.org/2000/svg">
<path fill-rule="evenodd" clip-rule="evenodd" d="M38.5143 0H22.2838L30.8647 96.4063L38.5143 0ZM60.7981 0L60.7899 0.0804727H100.491L111.6 141.712H89.449L87.786 118.858H73.6841L72.2206 141.712H49.4713L60.7416 0.554234L46.3635 141.712H14.4345L0 0V143H137.683H320V141.712H272.506V0.0804727H295.92V117.571H320V0H60.7981ZM137.683 143C147.439 143 154.623 139.701 159.235 133.102C163.847 126.449 166.153 116.685 166.153 103.81V0.0804727H143.404V102.683C143.404 105.044 143.293 107.324 143.071 109.523C142.894 111.723 142.406 113.52 141.608 114.915C140.809 116.256 139.501 116.927 137.683 116.927C135.909 116.927 134.623 116.229 133.825 114.835C133.027 113.44 132.517 111.669 132.295 109.523C132.073 107.324 131.962 105.044 131.962 102.683V0.0804727H109.213V103.81C109.213 116.685 111.519 126.449 116.131 133.102C120.743 139.701 127.927 143 137.683 143ZM85.99 96.2454H75.347L79.8038 24.2223H80.8681L85.99 96.2454ZM166.959 0.0804727V141.712H189.975V85.623H199.487C205.961 85.623 210.95 83.8794 214.453 80.3922C218.001 76.9051 220.462 71.9962 221.837 65.6657C222.397 63.0637 222.843 60.279 223.175 57.3116V141.712H271.534V114.11H246.989V81.6798H269.073V55.0433H246.989V27.4412H270.005V0.0804727H223.175V29.8147C222.768 26.3508 222.189 23.1455 221.438 20.1987C219.797 13.7608 217.07 8.79835 213.256 5.3112C209.487 1.82405 204.365 0.0804727 197.89 0.0804727H166.959ZM191.305 60.1936H189.975V25.9122H192.569C196.117 25.9122 198.356 27.3875 199.287 30.3382C200.263 33.2352 200.751 37.3662 200.751 42.731C200.751 48.4714 200.263 52.8169 199.287 55.7676C198.312 58.7183 195.651 60.1936 191.305 60.1936Z" fill="black"/>
</svg>
